<?xml version="1.0" encoding="UTF-8"?>
<svg id="Capa_2" data-name="Capa 2" xmlns="http://www.w3.org/2000/svg" viewBox="0 0 667.1 185.64">
  <defs>
    <style>
      .cls-1 {
        fill: #f6e820;
      }

      .cls-1, .cls-2, .cls-3, .cls-4 {
        stroke-width: 0px;
      }

      .cls-2 {
        fill: none;
      }

      .cls-3 {
        fill: #fff;
      }

      .cls-4 {
        fill: #e52524;
      }
    </style>
  </defs>
  <g id="P">
    <g>
      <g>
        <path class="cls-1" d="M425.99,28.26c0-1.04.19-2.02.57-2.92.38-.9.91-1.68,1.6-2.35.69-.66,1.49-1.2,2.39-1.6.9-.4,1.88-.61,2.92-.61s2.02.2,2.92.61c.9.4,1.68.94,2.35,1.6.66.67,1.2,1.45,1.6,2.35.4.9.61,1.88.61,2.92s-.2,2.02-.61,2.92c-.4.9-.94,1.7-1.6,2.39-.67.69-1.45,1.22-2.35,1.6-.9.38-1.88.57-2.92.57s-2.02-.19-2.92-.57c-.9-.38-1.7-.91-2.39-1.6-.69-.69-1.22-1.48-1.6-2.39-.38-.9-.57-1.87-.57-2.92Z"/>
        <path class="cls-1" d="M470.98,33.6c-1.28.71-2.69,1.27-4.23,1.67-1.55.4-3.15.61-4.81.61-2.61,0-5.03-.46-7.26-1.39-2.23-.93-4.16-2.21-5.77-3.85-1.62-1.64-2.87-3.53-3.77-5.69-.9-2.16-1.35-4.5-1.35-7.01s.45-4.79,1.35-6.98c.9-2.18,2.16-4.08,3.77-5.69,1.61-1.61,3.53-2.89,5.77-3.84,2.23-.95,4.65-1.42,7.26-1.42,3.37,0,6.38.81,9.04,2.42v12.53c-1.04-.52-2.09-.95-3.13-1.28-1.05-.33-2.33-.5-3.84-.5-1.8,0-3.12.46-3.95,1.39-.83.93-1.24,2.05-1.24,3.38s.41,2.52,1.24,3.42c.83.9,2.15,1.35,3.95,1.35,1.42,0,2.74-.24,3.95-.71,1.21-.47,2.22-1.19,3.02-2.14v13.74Z"/>
        <path class="cls-1" d="M474.11,18.01c0-2.47.49-4.8,1.46-7.01.97-2.21,2.3-4.12,3.99-5.73,1.68-1.61,3.67-2.89,5.94-3.84,2.28-.95,4.72-1.42,7.33-1.42s5.06.48,7.33,1.42c2.28.95,4.27,2.23,5.98,3.84,1.71,1.61,3.05,3.52,4.02,5.73.97,2.21,1.46,4.55,1.46,7.01s-.49,4.85-1.46,7.01c-.98,2.16-2.32,4.06-4.02,5.7-1.71,1.64-3.7,2.92-5.98,3.85s-4.72,1.39-7.33,1.39-5.05-.46-7.33-1.39c-2.28-.93-4.26-2.21-5.94-3.85-1.68-1.64-3.01-3.53-3.99-5.7-.98-2.16-1.46-4.5-1.46-7.01ZM489.06,18.01c0,1.38.3,2.52.89,3.42.59.9,1.55,1.35,2.88,1.35s2.24-.45,2.88-1.35c.64-.9.96-2.04.96-3.42s-.32-2.47-.96-3.42c-.64-.95-1.6-1.42-2.88-1.42s-2.29.48-2.88,1.42c-.59.95-.89,2.09-.89,3.42Z"/>
        <path class="cls-1" d="M547.51,3.63c1.9-1.19,3.81-2.08,5.73-2.67,1.92-.59,4.02-.89,6.3-.89s4.08.48,5.55,1.42c1.47.95,2.66,2.2,3.56,3.74.9,1.54,1.53,3.3,1.89,5.27.35,1.97.53,3.95.53,5.94v18.72h-14.95v-18.72c0-.66-.25-1.23-.74-1.71-.5-.47-1.04-.71-1.6-.71-.71,0-1.28.14-1.71.43-.43.28-.77.66-1.03,1.14-.26.48-.43.99-.5,1.53-.07.55-.11,1.1-.11,1.67v16.37h-14.95v-18.72c0-.66-.25-1.23-.74-1.71-.5-.47-1.04-.71-1.6-.71-.71,0-1.28.14-1.71.43-.43.28-.77.66-1.03,1.14-.26.48-.43.99-.5,1.53-.07.55-.11,1.1-.11,1.67v16.37h-14.95V.78h14.95v2.56c.43-.24.9-.54,1.43-.93.52-.38,1.16-.75,1.92-1.1.76-.36,1.68-.65,2.78-.89,1.09-.24,2.42-.36,3.99-.36,1.81,0,3.32.32,4.56.96,1.23.64,2.25,1.51,3.06,2.6Z"/>
        <path class="cls-1" d="M574.2,28.26c0-1.04.19-2.02.57-2.92.38-.9.91-1.68,1.6-2.35.69-.66,1.48-1.2,2.38-1.6.9-.4,1.88-.61,2.92-.61s2.02.2,2.92.61c.9.4,1.68.94,2.35,1.6.66.67,1.2,1.45,1.6,2.35.4.9.6,1.88.6,2.92s-.2,2.02-.6,2.92c-.4.9-.94,1.7-1.6,2.39-.67.69-1.45,1.22-2.35,1.6-.9.38-1.87.57-2.92.57s-2.02-.19-2.92-.57c-.9-.38-1.7-.91-2.38-1.6s-1.22-1.48-1.6-2.39c-.38-.9-.57-1.87-.57-2.92Z"/>
        <path class="cls-1" d="M618.48,35.17h-15.17l-11.39-34.38h14.95l3.99,14.59,4.06-14.59h14.95l-11.39,34.38Z"/>
        <path class="cls-1" d="M628.47,19.21c0,6.73,4.94,16.53,19.19,16.53,11.83,0,16.58-4.06,16.58-4.06l-.56-10.59c-11.18,6.63-15.65,3.37-15.65,3.37l17.97-10.69s-1-12.77-18.77-12.77c-16.5,0-18.77,13.18-18.77,18.22ZM641.52,17.63s-.56-4.06,2.89-5.94c3.45-1.88,6.71.49,6.71.49l-9.59,5.44Z"/>
      </g>
      <g>
        <g>
          <polygon class="cls-4" points="663.39 48.63 621.16 48.63 609.7 94.06 598.45 48.63 556.22 48.63 592.01 145.73 581.56 181.92 619.36 181.92 663.39 48.63"/>
          <path class="cls-3" d="M666.4,46.45c-.7-.97-1.82-1.54-3.01-1.54h-42.22c-1.7,0-3.19,1.16-3.6,2.81l-7.82,31.02-7.68-31.01c-.41-1.66-1.9-2.82-3.61-2.82h-42.22c-1.22,0-2.35.59-3.05,1.59-.69,1-.86,2.27-.44,3.41l35.37,95.96-10.12,35.02c-.32,1.12-.1,2.33.6,3.26.7.93,1.8,1.48,2.97,1.48h37.8c1.6,0,3.03-1.03,3.53-2.55l44.03-133.29c.37-1.13.18-2.38-.52-3.34ZM592.01,145.73l-35.79-97.11h42.22l11.26,45.44,11.46-45.44h42.22l-44.03,133.3h-37.8l10.45-36.19Z"/>
        </g>
        <g>
          <polygon class="cls-4" points="663.39 48.63 621.16 48.63 609.7 94.06 598.45 48.63 556.22 48.63 592.01 145.73 581.56 181.92 619.36 181.92 663.39 48.63"/>
          <path class="cls-3" d="M666.4,46.45c-.7-.97-1.82-1.54-3.01-1.54h-42.22c-1.7,0-3.19,1.16-3.6,2.81l-7.82,31.02-7.68-31.01c-.41-1.66-1.9-2.82-3.61-2.82h-42.22c-1.22,0-2.35.59-3.05,1.59-.69,1-.86,2.27-.44,3.41l35.37,95.96-10.12,35.02c-.32,1.12-.1,2.33.6,3.26.7.93,1.8,1.48,2.97,1.48h37.8c1.6,0,3.03-1.03,3.53-2.55l44.03-133.29c.37-1.13.18-2.38-.52-3.34ZM592.01,145.73l-35.79-97.11h42.22l11.26,45.44,11.46-45.44h42.22l-44.03,133.3h-37.8l10.45-36.19Z"/>
        </g>
        <g>
          <path class="cls-2" d="M501.7,79.72c-3.45,1.88-5.13,4.77-5.93,7.4l15.42-8.75c-.94-.19-1.96-.31-3.03-.31-2.26,0-4.44.56-6.46,1.67Z"/>
          <path class="cls-4" d="M508.24,45.16c-48.29,0-54.92,38.55-54.92,53.31,0,19.69,14.45,48.35,56.14,48.35,34.61,0,48.51-11.87,48.51-11.87l-1.64-30.98c-16.47,9.77-27.97,12.2-35.32,12.2s-10.47-2.36-10.47-2.36l52.6-31.27s-2.92-37.38-54.92-37.38ZM491.47,93.83s-1.63-11.87,8.45-17.37c2.86-1.56,5.68-2.12,8.24-2.12,6.48,0,11.38,3.57,11.38,3.57l-28.07,15.93Z"/>
          <path class="cls-3" d="M566.86,82.25c-.03-.43-.9-10.57-8.72-20.67-7.11-9.18-21.53-20.13-49.9-20.13-22.16,0-38.53,7.66-48.65,22.77-9.01,13.44-9.98,28.43-9.98,34.25,0,12.35,4.89,24.77,13.42,34.07,7.53,8.21,21.69,18,46.44,18,35.57,0,50.32-12.24,50.93-12.76.88-.75,1.36-1.87,1.3-3.02l-1.64-30.98c-.07-1.3-.81-2.47-1.96-3.08-.55-.29-1.15-.44-1.75-.44-.66,0-1.31.17-1.89.52-16.27,9.65-27.15,11.68-33.43,11.68-.3,0-.6,0-.88-.01l44.91-26.7c1.22-.72,1.92-2.07,1.81-3.48ZM510.55,113.81s3.22,2.36,10.47,2.36,18.85-2.43,35.32-12.2l1.64,30.98s-13.9,11.87-48.51,11.87c-41.69,0-56.14-28.66-56.14-48.35,0-14.75,6.63-53.31,54.92-53.31,52,0,54.92,37.38,54.92,37.38l-52.6,31.27Z"/>
          <path class="cls-3" d="M499.92,76.46c-10.08,5.5-8.45,17.37-8.45,17.37l28.07-15.93s-4.9-3.57-11.38-3.57c-2.57,0-5.38.56-8.24,2.12ZM495.77,87.12c.8-2.63,2.48-5.51,5.93-7.4,2.03-1.11,4.2-1.67,6.46-1.67,1.06,0,2.08.12,3.03.31l-15.42,8.75Z"/>
        </g>
        <g>
          <polygon class="cls-4" points="448.87 104.92 411.87 104.92 411.87 5 360.41 5 360.41 145.73 448.87 145.73 448.87 104.92"/>
          <path class="cls-3" d="M448.87,101.2h-33.28V5c0-2.05-1.66-3.72-3.72-3.72h-51.47c-2.05,0-3.72,1.66-3.72,3.72v140.73c0,2.05,1.67,3.72,3.72,3.72h88.46c2.05,0,3.72-1.66,3.72-3.72v-40.81c0-2.05-1.66-3.72-3.72-3.72ZM360.41,5h51.47v99.92h36.99v40.81h-88.46V5Z"/>
        </g>
        <g>
          <path class="cls-2" d="M286.59,57.77c1.07-.61,2.16-1.6,2.16-4.32,0-3.16-1.22-4.33-2.27-4.99-2.1-1.31-4.49-1.95-7.28-1.95h-.3v13.07h.51c2.71,0,5.07-.59,7.2-1.82Z"/>
          <path class="cls-4" d="M299.69,145.73h51.46l-26.33-54.89c6.43-4.69,11.32-10.35,14.68-16.99,3.35-6.63,5.03-13.3,5.03-20,0-8.71-1.64-16.15-4.92-22.32-3.29-6.16-7.48-11.22-12.57-15.18-5.09-3.95-10.65-6.83-16.68-8.64-6.03-1.81-11.73-2.71-17.09-2.71h-67.35v140.73h49.25v-44.83h3.02l21.51,44.83ZM275.17,42.8h4.02c3.48,0,6.57.84,9.25,2.51,2.68,1.68,4.02,4.39,4.02,8.14,0,3.49-1.34,6-4.02,7.54-2.68,1.54-5.7,2.31-9.05,2.31h-4.22v-20.51Z"/>
          <path class="cls-3" d="M354.51,144.13l-25.03-52.18c5.7-4.65,10.18-10.16,13.34-16.42,3.6-7.13,5.43-14.42,5.43-21.68,0-9.28-1.8-17.37-5.36-24.06-3.52-6.61-8.09-12.11-13.56-16.37-8.9-6.71-17.9-9.27-17.9-9.27-6.34-1.91-12.45-2.87-18.16-2.87h-67.35c-2.05,0-3.72,1.66-3.72,3.72v140.73c0,2.05,1.66,3.72,3.72,3.72h49.25c2.05,0,3.72-1.66,3.72-3.72v-34.78l17.46,36.39c.62,1.29,1.92,2.11,3.35,2.11h51.46c1.28,0,2.46-.65,3.15-1.74.68-1.08.76-2.44.2-3.59ZM275.17,145.73h-49.25V5h67.35c5.36,0,11.06.9,17.09,2.71,6.03,1.81,11.59,4.69,16.68,8.64,5.09,3.96,9.28,9.02,12.57,15.18,3.28,6.17,4.92,13.6,4.92,22.32,0,6.7-1.68,13.37-5.03,20-3.35,6.64-8.24,12.3-14.68,16.99l26.33,54.89h-51.46l-21.51-44.83h-3.02v44.83Z"/>
          <path class="cls-3" d="M288.44,60.99c2.68-1.54,4.02-4.05,4.02-7.54,0-3.75-1.34-6.46-4.02-8.14-2.68-1.67-5.77-2.51-9.25-2.51h-4.02v20.51h4.22c3.35,0,6.37-.77,9.05-2.31ZM278.88,46.51h.3c2.8,0,5.18.64,7.28,1.95,1.05.66,2.27,1.83,2.27,4.99,0,2.71-1.09,3.71-2.16,4.32-2.13,1.22-4.48,1.82-7.2,1.82h-.51v-13.07Z"/>
        </g>
        <g>
          <path class="cls-2" d="M166.99,104.75c-4.78,0-8.97,2.65-8.97,5.67s4.19,5.67,8.97,5.67,8.97-2.65,8.97-5.67-4.19-5.67-8.97-5.67Z"/>
          <path class="cls-4" d="M172.9,47.24c-.6,0-1.17,0-1.74,0-.56-.02-1.17-.03-1.82-.03-11.78,0-37.96,3.13-37.96,3.13l-3.98,23.02c9.34-1.59,16.75-2.23,22.64-2.23,22.66,0,22.63,9.39,22.63,9.39-6.64-1.36-12.57-1.96-17.85-1.96-30.15,0-39.36,19.76-39.36,32.92,0,15.48,11.37,33.28,34.1,33.28s29.93-7.35,29.93-7.35v5.41l36.37-.1s-1.14-11.12-1.14-53.69-25.49-41.8-41.82-41.8ZM166.99,119.8c-7.01,0-12.69-4.2-12.69-9.38s5.68-9.39,12.69-9.39,12.69,4.2,12.69,9.39-5.68,9.38-12.69,9.38Z"/>
          <path class="cls-3" d="M218.44,89.03c0-45.51-30.76-45.51-45.54-45.51h-1.68c-.58-.02-1.21-.03-1.88-.03-11.86,0-37.33,3.03-38.4,3.16-1.63.19-2.94,1.44-3.22,3.06l-3.98,23.02c-.21,1.19.18,2.4,1.03,3.26.7.7,1.65,1.09,2.63,1.09.21,0,.42-.02.62-.05,8.45-1.44,15.86-2.18,22.01-2.18.81,0,1.58.01,2.32.04-16.64.59-26.15,7.14-31.26,12.68-5.94,6.45-9.36,15.17-9.36,23.92,0,17.94,13.25,37,37.81,37,13.08,0,21.41-2.33,26.37-4.56.18.58.49,1.1.93,1.54.7.69,1.64,1.09,2.62,1.09h.01l36.37-.1c1.05,0,2.05-.45,2.75-1.23.7-.78,1.04-1.82.94-2.87-.01-.11-1.12-11.64-1.12-53.32ZM179.49,142.83v-5.41s-7.2,7.35-29.93,7.35-34.1-17.8-34.1-33.28c0-13.17,9.21-32.92,39.36-32.92,5.28,0,11.21.61,17.85,1.96,0,0,.03-9.39-22.63-9.39-5.88,0-13.3.63-22.64,2.23l3.98-23.02s26.19-3.13,37.96-3.13c.65,0,1.26.01,1.82.03.57,0,1.15,0,1.74,0,16.34,0,41.82.72,41.82,41.8s1.14,53.69,1.14,53.69l-36.37.1Z"/>
          <path class="cls-3" d="M166.99,101.03c-7.01,0-12.69,4.2-12.69,9.39s5.68,9.38,12.69,9.38,12.69-4.2,12.69-9.38-5.68-9.39-12.69-9.39ZM166.99,116.09c-4.78,0-8.97-2.65-8.97-5.67s4.19-5.67,8.97-5.67,8.97,2.65,8.97,5.67-4.19,5.67-8.97,5.67Z"/>
        </g>
        <g>
          <path class="cls-2" d="M65.38,49.99c-2.1-1.37-4.55-2.03-7.48-2.03h-.33v14.2h.53c2.84,0,5.26-.62,7.39-1.89,1.04-.63,2.24-1.75,2.24-4.9,0-3.45-1.34-4.72-2.35-5.37Z"/>
          <path class="cls-4" d="M120.88,73.35c2.36-5.93,3.54-11.79,3.54-17.59,0-9.16-1.69-17.01-5.05-23.55-3.37-6.54-7.61-11.86-12.74-15.97-5.12-4.11-10.75-7.15-16.88-9.1-6.13-1.95-11.96-2.93-17.49-2.93H3.72v141.52h50.14v-40.23h18.4c8.09,0,15.36-1.52,21.84-4.55,6.47-3.03,11.96-6.91,16.48-11.62,4.51-4.72,7.95-10.04,10.31-15.97ZM67.4,63.45c-2.7,1.61-5.8,2.42-9.3,2.42h-4.25v-21.63h4.05c3.64,0,6.8.88,9.5,2.63,2.7,1.75,4.04,4.58,4.04,8.49s-1.35,6.47-4.04,8.09Z"/>
          <path class="cls-3" d="M122.66,30.51c-3.59-6.97-8.21-12.75-13.71-17.17-5.46-4.38-11.54-7.66-18.08-9.74-6.47-2.06-12.73-3.1-18.62-3.1H3.72C1.66.5,0,2.16,0,4.21v141.52c0,2.05,1.66,3.72,3.72,3.72h50.14c2.05,0,3.72-1.66,3.72-3.72v-36.52h14.68c8.6,0,16.48-1.65,23.41-4.9,6.85-3.21,12.76-7.39,17.58-12.42,4.83-5.04,8.56-10.82,11.08-17.17,2.52-6.34,3.8-12.72,3.8-18.96,0-9.71-1.84-18.21-5.47-25.25ZM72.25,105.5h-18.4v40.23H3.72V4.21h68.54c5.53,0,11.35.98,17.49,2.93,6.13,1.96,11.76,4.99,16.88,9.1,5.12,4.11,9.37,9.44,12.74,15.97,3.37,6.54,5.05,14.39,5.05,23.55,0,5.8-1.18,11.66-3.54,17.59-2.36,5.93-5.8,11.26-10.31,15.97-4.52,4.72-10.01,8.59-16.48,11.62-6.47,3.03-13.75,4.55-21.84,4.55Z"/>
          <path class="cls-3" d="M67.4,46.87c-2.7-1.75-5.86-2.63-9.5-2.63h-4.05v21.63h4.25c3.51,0,6.6-.81,9.3-2.42,2.7-1.62,4.04-4.31,4.04-8.09s-1.35-6.74-4.04-8.49ZM65.49,60.26c-2.13,1.27-4.55,1.89-7.39,1.89h-.53v-14.2h.33c2.93,0,5.37.66,7.48,2.03,1.01.66,2.35,1.93,2.35,5.37,0,3.15-1.2,4.28-2.24,4.9Z"/>
        </g>
        <g>
          <path class="cls-2" d="M501.7,79.72c-3.45,1.88-5.13,4.77-5.93,7.4l15.42-8.75c-.94-.19-1.96-.31-3.03-.31-2.26,0-4.44.56-6.46,1.67Z"/>
          <path class="cls-4" d="M508.24,45.16c-48.29,0-54.92,38.55-54.92,53.31,0,19.69,14.45,48.35,56.14,48.35,34.61,0,48.51-11.87,48.51-11.87l-1.64-30.98c-16.47,9.77-27.97,12.2-35.32,12.2s-10.47-2.36-10.47-2.36l52.6-31.27s-2.92-37.38-54.92-37.38ZM491.47,93.83s-1.63-11.87,8.45-17.37c2.86-1.56,5.68-2.12,8.24-2.12,6.48,0,11.38,3.57,11.38,3.57l-28.07,15.93Z"/>
          <path class="cls-3" d="M566.86,82.25c-.03-.43-.9-10.57-8.72-20.67-7.11-9.18-21.53-20.13-49.9-20.13-22.16,0-38.53,7.66-48.65,22.77-9.01,13.44-9.98,28.43-9.98,34.25,0,12.35,4.89,24.77,13.42,34.07,7.53,8.21,21.69,18,46.44,18,35.57,0,50.32-12.24,50.93-12.76.88-.75,1.36-1.87,1.3-3.02l-1.64-30.98c-.07-1.3-.81-2.47-1.96-3.08-.55-.29-1.15-.44-1.75-.44-.66,0-1.31.17-1.89.52-16.27,9.65-27.15,11.68-33.43,11.68-.3,0-.6,0-.88-.01l44.91-26.7c1.22-.72,1.92-2.07,1.81-3.48ZM510.55,113.81s3.22,2.36,10.47,2.36,18.85-2.43,35.32-12.2l1.64,30.98s-13.9,11.87-48.51,11.87c-41.69,0-56.14-28.66-56.14-48.35,0-14.75,6.63-53.31,54.92-53.31,52,0,54.92,37.38,54.92,37.38l-52.6,31.27Z"/>
          <path class="cls-3" d="M499.92,76.46c-10.08,5.5-8.45,17.37-8.45,17.37l28.07-15.93s-4.9-3.57-11.38-3.57c-2.57,0-5.38.56-8.24,2.12ZM495.77,87.12c.8-2.63,2.48-5.51,5.93-7.4,2.03-1.11,4.2-1.67,6.46-1.67,1.06,0,2.08.12,3.03.31l-15.42,8.75Z"/>
        </g>
        <g>
          <polygon class="cls-4" points="448.87 104.92 411.87 104.92 411.87 5 360.41 5 360.41 145.73 448.87 145.73 448.87 104.92"/>
          <path class="cls-3" d="M448.87,101.2h-33.28V5c0-2.05-1.66-3.72-3.72-3.72h-51.47c-2.05,0-3.72,1.66-3.72,3.72v140.73c0,2.05,1.67,3.72,3.72,3.72h88.46c2.05,0,3.72-1.66,3.72-3.72v-40.81c0-2.05-1.66-3.72-3.72-3.72ZM360.41,5h51.47v99.92h36.99v40.81h-88.46V5Z"/>
        </g>
        <g>
          <path class="cls-2" d="M286.59,57.77c1.07-.61,2.16-1.6,2.16-4.32,0-3.16-1.22-4.33-2.27-4.99-2.1-1.31-4.49-1.95-7.28-1.95h-.3v13.07h.51c2.71,0,5.07-.59,7.2-1.82Z"/>
          <path class="cls-4" d="M299.69,145.73h51.46l-26.33-54.89c6.43-4.69,11.32-10.35,14.68-16.99,3.35-6.63,5.03-13.3,5.03-20,0-8.71-1.64-16.15-4.92-22.32-3.29-6.16-7.48-11.22-12.57-15.18-5.09-3.95-10.65-6.83-16.68-8.64-6.03-1.81-11.73-2.71-17.09-2.71h-67.35v140.73h49.25v-44.83h3.02l21.51,44.83ZM275.17,42.8h4.02c3.48,0,6.57.84,9.25,2.51,2.68,1.68,4.02,4.39,4.02,8.14,0,3.49-1.34,6-4.02,7.54-2.68,1.54-5.7,2.31-9.05,2.31h-4.22v-20.51Z"/>
          <path class="cls-3" d="M354.51,144.13l-25.03-52.18c5.7-4.65,10.18-10.16,13.34-16.42,3.6-7.13,5.43-14.42,5.43-21.68,0-9.28-1.8-17.37-5.36-24.06-3.52-6.61-8.09-12.11-13.56-16.37-8.9-6.71-17.9-9.27-17.9-9.27-6.34-1.91-12.45-2.87-18.16-2.87h-67.35c-2.05,0-3.72,1.66-3.72,3.72v140.73c0,2.05,1.66,3.72,3.72,3.72h49.25c2.05,0,3.72-1.66,3.72-3.72v-34.78l17.46,36.39c.62,1.29,1.92,2.11,3.35,2.11h51.46c1.28,0,2.46-.65,3.15-1.74.68-1.08.76-2.44.2-3.59ZM275.17,145.73h-49.25V5h67.35c5.36,0,11.06.9,17.09,2.71,6.03,1.81,11.59,4.69,16.68,8.64,5.09,3.96,9.28,9.02,12.57,15.18,3.28,6.17,4.92,13.6,4.92,22.32,0,6.7-1.68,13.37-5.03,20-3.35,6.64-8.24,12.3-14.68,16.99l26.33,54.89h-51.46l-21.51-44.83h-3.02v44.83Z"/>
          <path class="cls-3" d="M288.44,60.99c2.68-1.54,4.02-4.05,4.02-7.54,0-3.75-1.34-6.46-4.02-8.14-2.68-1.67-5.77-2.51-9.25-2.51h-4.02v20.51h4.22c3.35,0,6.37-.77,9.05-2.31ZM278.88,46.51h.3c2.8,0,5.18.64,7.28,1.95,1.05.66,2.27,1.83,2.27,4.99,0,2.71-1.09,3.71-2.16,4.32-2.13,1.22-4.48,1.82-7.2,1.82h-.51v-13.07Z"/>
        </g>
        <g>
          <path class="cls-2" d="M166.99,104.75c-4.78,0-8.97,2.65-8.97,5.67s4.19,5.67,8.97,5.67,8.97-2.65,8.97-5.67-4.19-5.67-8.97-5.67Z"/>
          <path class="cls-4" d="M172.9,47.24c-.6,0-1.17,0-1.74,0-.56-.02-1.17-.03-1.82-.03-11.78,0-37.96,3.13-37.96,3.13l-3.98,23.02c9.34-1.59,16.75-2.23,22.64-2.23,22.66,0,22.63,9.39,22.63,9.39-6.64-1.36-12.57-1.96-17.85-1.96-30.15,0-39.36,19.76-39.36,32.92,0,15.48,11.37,33.28,34.1,33.28s29.93-7.35,29.93-7.35v5.41l36.37-.1s-1.14-11.12-1.14-53.69-25.49-41.8-41.82-41.8ZM166.99,119.8c-7.01,0-12.69-4.2-12.69-9.38s5.68-9.39,12.69-9.39,12.69,4.2,12.69,9.39-5.68,9.38-12.69,9.38Z"/>
          <path class="cls-3" d="M218.44,89.03c0-45.51-30.76-45.51-45.54-45.51h-1.68c-.58-.02-1.21-.03-1.88-.03-11.86,0-37.33,3.03-38.4,3.16-1.63.19-2.94,1.44-3.22,3.06l-3.98,23.02c-.21,1.19.18,2.4,1.03,3.26.7.7,1.65,1.09,2.63,1.09.21,0,.42-.02.62-.05,8.45-1.44,15.86-2.18,22.01-2.18.81,0,1.58.01,2.32.04-16.64.59-26.15,7.14-31.26,12.68-5.94,6.45-9.36,15.17-9.36,23.92,0,17.94,13.25,37,37.81,37,13.08,0,21.41-2.33,26.37-4.56.18.58.49,1.1.93,1.54.7.69,1.64,1.09,2.62,1.09h.01l36.37-.1c1.05,0,2.05-.45,2.75-1.23.7-.78,1.04-1.82.94-2.87-.01-.11-1.12-11.64-1.12-53.32ZM179.49,142.83v-5.41s-7.2,7.35-29.93,7.35-34.1-17.8-34.1-33.28c0-13.17,9.21-32.92,39.36-32.92,5.28,0,11.21.61,17.85,1.96,0,0,.03-9.39-22.63-9.39-5.88,0-13.3.63-22.64,2.23l3.98-23.02s26.19-3.13,37.96-3.13c.65,0,1.26.01,1.82.03.57,0,1.15,0,1.74,0,16.34,0,41.82.72,41.82,41.8s1.14,53.69,1.14,53.69l-36.37.1Z"/>
          <path class="cls-3" d="M166.99,101.03c-7.01,0-12.69,4.2-12.69,9.39s5.68,9.38,12.69,9.38,12.69-4.2,12.69-9.38-5.68-9.39-12.69-9.39ZM166.99,116.09c-4.78,0-8.97-2.65-8.97-5.67s4.19-5.67,8.97-5.67,8.97,2.65,8.97,5.67-4.19,5.67-8.97,5.67Z"/>
        </g>
        <g>
          <path class="cls-2" d="M65.38,49.99c-2.1-1.37-4.55-2.03-7.48-2.03h-.33v14.2h.53c2.84,0,5.26-.62,7.39-1.89,1.04-.63,2.24-1.75,2.24-4.9,0-3.45-1.34-4.72-2.35-5.37Z"/>
          <path class="cls-4" d="M120.88,73.35c2.36-5.93,3.54-11.79,3.54-17.59,0-9.16-1.69-17.01-5.05-23.55-3.37-6.54-7.61-11.86-12.74-15.97-5.12-4.11-10.75-7.15-16.88-9.1-6.13-1.95-11.96-2.93-17.49-2.93H3.72v141.52h50.14v-40.23h18.4c8.09,0,15.36-1.52,21.84-4.55,6.47-3.03,11.96-6.91,16.48-11.62,4.51-4.72,7.95-10.04,10.31-15.97ZM67.4,63.45c-2.7,1.61-5.8,2.42-9.3,2.42h-4.25v-21.63h4.05c3.64,0,6.8.88,9.5,2.63,2.7,1.75,4.04,4.58,4.04,8.49s-1.35,6.47-4.04,8.09Z"/>
          <path class="cls-3" d="M122.66,30.51c-3.59-6.97-8.21-12.75-13.71-17.17-5.46-4.38-11.54-7.66-18.08-9.74-6.47-2.06-12.73-3.1-18.62-3.1H3.72C1.66.5,0,2.16,0,4.21v141.52c0,2.05,1.66,3.72,3.72,3.72h50.14c2.05,0,3.72-1.66,3.72-3.72v-36.52h14.68c8.6,0,16.48-1.65,23.41-4.9,6.85-3.21,12.76-7.39,17.58-12.42,4.83-5.04,8.56-10.82,11.08-17.17,2.52-6.34,3.8-12.72,3.8-18.96,0-9.71-1.84-18.21-5.47-25.25ZM72.25,105.5h-18.4v40.23H3.72V4.21h68.54c5.53,0,11.35.98,17.49,2.93,6.13,1.96,11.76,4.99,16.88,9.1,5.12,4.11,9.37,9.44,12.74,15.97,3.37,6.54,5.05,14.39,5.05,23.55,0,5.8-1.18,11.66-3.54,17.59-2.36,5.93-5.8,11.26-10.31,15.97-4.52,4.72-10.01,8.59-16.48,11.62-6.47,3.03-13.75,4.55-21.84,4.55Z"/>
          <path class="cls-3" d="M67.4,46.87c-2.7-1.75-5.86-2.63-9.5-2.63h-4.05v21.63h4.25c3.51,0,6.6-.81,9.3-2.42,2.7-1.62,4.04-4.31,4.04-8.09s-1.35-6.74-4.04-8.49ZM65.49,60.26c-2.13,1.27-4.55,1.89-7.39,1.89h-.53v-14.2h.33c2.93,0,5.37.66,7.48,2.03,1.01.66,2.35,1.93,2.35,5.37,0,3.15-1.2,4.28-2.24,4.9Z"/>
        </g>
      </g>
    </g>
  </g>
</svg>